# xmcd
#
# Track frame offsets:
#	150
#	14712
#	32635
#	55212
#	69257
#	85030
#	101950
#	118200
#	132735
#	157260
#	172730
#
# Disc length: 2561 seconds
#
# Revision: 1
# Processed by: cddbd v1.5.1PL0 Copyright (c) Steve Scherf et al.
# Submitted via: audiograbber 1.83.01
#
DISCID=9909ff0b
DTITLE=Lowell Fulson - Think Twice Before You Speak
DYEAR=1984
DGENRE=Blues
TTITLE0=Parachute Woman
TTITLE1=I'm Tough
TTITLE2=Think Twice Before You Speak
TTITLE3=Well Oh Well
TTITLE4=One Room Country Shack
TTITLE5=Meet Me In The Bottom
TTITLE6=Come On
TTITLE7=You're Gonna Miss Me
TTITLE8=Lowell's Jump
TTITLE9=Come Back Baby
TTITLE10=Sinner's Prayer
EXTD=
EXTT0=
EXTT1=
EXTT2=
EXTT3=
EXTT4=
EXTT5=
EXTT6=
EXTT7=
EXTT8=
EXTT9=
EXTT10=
PLAYORDER=
